<mxfile host="app.diagrams.net" modified="2023-11-13T04:33:41.085Z" agent="Mozilla/5.0 (Windows NT 10.0; Win64; x64) AppleWebKit/537.36 (KHTML, like Gecko) Chrome/119.0.0.0 Safari/537.36 Edg/119.0.0.0" etag="_5lp0VdQQznHnuWrdNau" version="22.1.0" type="device" pages="2">
  <diagram id="C5RBs43oDa-KdzZeNtuy" name="FlujoApp">
    <mxGraphModel dx="1976" dy="1042" grid="1" gridSize="10" guides="1" tooltips="1" connect="1" arrows="1" fold="1" page="1" pageScale="1" pageWidth="827" pageHeight="1169" math="0" shadow="0">
      <root>
        <mxCell id="WIyWlLk6GJQsqaUBKTNV-0" />
        <mxCell id="WIyWlLk6GJQsqaUBKTNV-1" parent="WIyWlLk6GJQsqaUBKTNV-0" />
        <mxCell id="jZ41Z43YZQu7ptAk3vIj-8" value="" style="swimlane;startSize=0;" parent="WIyWlLk6GJQsqaUBKTNV-1" vertex="1">
          <mxGeometry x="120" y="401" width="930" height="1549" as="geometry" />
        </mxCell>
        <mxCell id="jZ41Z43YZQu7ptAk3vIj-1" value="Inicia sesión en la app" style="shape=process;whiteSpace=wrap;html=1;backgroundOutline=1;" parent="jZ41Z43YZQu7ptAk3vIj-8" vertex="1">
          <mxGeometry x="24" y="240.25" width="120" height="60" as="geometry" />
        </mxCell>
        <mxCell id="jZ41Z43YZQu7ptAk3vIj-4" value="Entra a realizar Solicita micro prestamo(100$ - 300$)" style="shape=process;whiteSpace=wrap;html=1;backgroundOutline=1;" parent="jZ41Z43YZQu7ptAk3vIj-8" vertex="1">
          <mxGeometry x="204" y="240.25" width="120" height="60" as="geometry" />
        </mxCell>
        <mxCell id="jZ41Z43YZQu7ptAk3vIj-5" style="edgeStyle=orthogonalEdgeStyle;rounded=0;orthogonalLoop=1;jettySize=auto;html=1;entryX=0;entryY=0.5;entryDx=0;entryDy=0;" parent="jZ41Z43YZQu7ptAk3vIj-8" source="jZ41Z43YZQu7ptAk3vIj-1" target="jZ41Z43YZQu7ptAk3vIj-4" edge="1">
          <mxGeometry relative="1" as="geometry" />
        </mxCell>
        <mxCell id="jZ41Z43YZQu7ptAk3vIj-10" style="edgeStyle=orthogonalEdgeStyle;rounded=0;orthogonalLoop=1;jettySize=auto;html=1;entryX=0;entryY=0.5;entryDx=0;entryDy=0;" parent="jZ41Z43YZQu7ptAk3vIj-8" source="jZ41Z43YZQu7ptAk3vIj-6" target="jZ41Z43YZQu7ptAk3vIj-9" edge="1">
          <mxGeometry relative="1" as="geometry" />
        </mxCell>
        <mxCell id="jZ41Z43YZQu7ptAk3vIj-6" value="Llena formulario con los siguientes datos:&lt;br&gt;&lt;ul&gt;&lt;li&gt;Cédula&lt;/li&gt;&lt;li&gt;Fecha de nacimiento&lt;/li&gt;&lt;li&gt;Trabajo&lt;/li&gt;&lt;li&gt;Cuenta bancaria con el que se realizará el depósito&lt;/li&gt;&lt;/ul&gt;Se solicita subida de documento físico de:&lt;br&gt;&lt;ul&gt;&lt;li&gt;Cédula&lt;/li&gt;&lt;li&gt;Talonario&lt;/li&gt;&lt;li&gt;Ultimo recibo de pago de 3 meses&lt;/li&gt;&lt;/ul&gt;" style="shape=process;whiteSpace=wrap;html=1;backgroundOutline=1;" parent="jZ41Z43YZQu7ptAk3vIj-8" vertex="1">
          <mxGeometry x="370" y="174.5" width="284" height="191.5" as="geometry" />
        </mxCell>
        <mxCell id="jZ41Z43YZQu7ptAk3vIj-7" style="edgeStyle=orthogonalEdgeStyle;rounded=0;orthogonalLoop=1;jettySize=auto;html=1;" parent="jZ41Z43YZQu7ptAk3vIj-8" source="jZ41Z43YZQu7ptAk3vIj-4" target="jZ41Z43YZQu7ptAk3vIj-6" edge="1">
          <mxGeometry relative="1" as="geometry" />
        </mxCell>
        <mxCell id="jZ41Z43YZQu7ptAk3vIj-0" value="&lt;font style=&quot;font-size: 22px;&quot;&gt;Flujo de portal App&lt;/font&gt;" style="text;html=1;align=center;verticalAlign=middle;resizable=0;points=[];autosize=1;strokeColor=none;fillColor=none;" parent="jZ41Z43YZQu7ptAk3vIj-8" vertex="1">
          <mxGeometry x="284" y="79" width="210" height="40" as="geometry" />
        </mxCell>
        <mxCell id="jZ41Z43YZQu7ptAk3vIj-37" style="edgeStyle=orthogonalEdgeStyle;rounded=0;orthogonalLoop=1;jettySize=auto;html=1;entryX=0.5;entryY=0;entryDx=0;entryDy=0;" parent="jZ41Z43YZQu7ptAk3vIj-8" source="jZ41Z43YZQu7ptAk3vIj-9" target="jZ41Z43YZQu7ptAk3vIj-14" edge="1">
          <mxGeometry relative="1" as="geometry">
            <Array as="points">
              <mxPoint x="800" y="549" />
              <mxPoint x="150" y="549" />
            </Array>
          </mxGeometry>
        </mxCell>
        <mxCell id="jZ41Z43YZQu7ptAk3vIj-9" value="Solicitar una forma de pago, se solicitará un objeto físico&lt;br&gt;se solicitará:&lt;br&gt;&lt;ul&gt;&lt;li&gt;Foto del objeto físico a custodiar&lt;/li&gt;&lt;li&gt;Recibo o factura del objeto adquirido&lt;/li&gt;&lt;/ul&gt;" style="shape=process;whiteSpace=wrap;html=1;backgroundOutline=1;" parent="jZ41Z43YZQu7ptAk3vIj-8" vertex="1">
          <mxGeometry x="700" y="194.22000000000003" width="200" height="152.06" as="geometry" />
        </mxCell>
        <mxCell id="jZ41Z43YZQu7ptAk3vIj-19" style="edgeStyle=orthogonalEdgeStyle;rounded=0;orthogonalLoop=1;jettySize=auto;html=1;" parent="jZ41Z43YZQu7ptAk3vIj-8" source="jZ41Z43YZQu7ptAk3vIj-14" target="jZ41Z43YZQu7ptAk3vIj-12" edge="1">
          <mxGeometry relative="1" as="geometry">
            <Array as="points">
              <mxPoint x="94" y="619" />
            </Array>
          </mxGeometry>
        </mxCell>
        <mxCell id="jZ41Z43YZQu7ptAk3vIj-14" value="¿Todo en orden?" style="rhombus;whiteSpace=wrap;html=1;" parent="jZ41Z43YZQu7ptAk3vIj-8" vertex="1">
          <mxGeometry x="110" y="589.5" width="80" height="80" as="geometry" />
        </mxCell>
        <mxCell id="jZ41Z43YZQu7ptAk3vIj-21" style="edgeStyle=orthogonalEdgeStyle;rounded=0;orthogonalLoop=1;jettySize=auto;html=1;" parent="jZ41Z43YZQu7ptAk3vIj-8" source="jZ41Z43YZQu7ptAk3vIj-12" target="jZ41Z43YZQu7ptAk3vIj-20" edge="1">
          <mxGeometry relative="1" as="geometry" />
        </mxCell>
        <mxCell id="jZ41Z43YZQu7ptAk3vIj-12" value="Se envía correo con pre - aprobación" style="shape=process;whiteSpace=wrap;html=1;backgroundOutline=1;" parent="jZ41Z43YZQu7ptAk3vIj-8" vertex="1">
          <mxGeometry x="40" y="700" width="120" height="60" as="geometry" />
        </mxCell>
        <mxCell id="jZ41Z43YZQu7ptAk3vIj-24" style="edgeStyle=orthogonalEdgeStyle;rounded=0;orthogonalLoop=1;jettySize=auto;html=1;entryX=0.5;entryY=0;entryDx=0;entryDy=0;" parent="jZ41Z43YZQu7ptAk3vIj-8" source="jZ41Z43YZQu7ptAk3vIj-20" target="jZ41Z43YZQu7ptAk3vIj-22" edge="1">
          <mxGeometry relative="1" as="geometry" />
        </mxCell>
        <mxCell id="jZ41Z43YZQu7ptAk3vIj-20" value="Se pide entrega de recibo y objeto en tienda física para su depósito de préstamo" style="shape=process;whiteSpace=wrap;html=1;backgroundOutline=1;" parent="jZ41Z43YZQu7ptAk3vIj-8" vertex="1">
          <mxGeometry x="321" y="639" width="166" height="71" as="geometry" />
        </mxCell>
        <mxCell id="jZ41Z43YZQu7ptAk3vIj-26" style="edgeStyle=orthogonalEdgeStyle;rounded=0;orthogonalLoop=1;jettySize=auto;html=1;" parent="jZ41Z43YZQu7ptAk3vIj-8" source="jZ41Z43YZQu7ptAk3vIj-22" target="jZ41Z43YZQu7ptAk3vIj-25" edge="1">
          <mxGeometry relative="1" as="geometry" />
        </mxCell>
        <mxCell id="jZ41Z43YZQu7ptAk3vIj-22" value="¿Todo en orden?" style="rhombus;whiteSpace=wrap;html=1;" parent="jZ41Z43YZQu7ptAk3vIj-8" vertex="1">
          <mxGeometry x="364" y="749" width="80" height="80" as="geometry" />
        </mxCell>
        <mxCell id="jZ41Z43YZQu7ptAk3vIj-29" style="edgeStyle=orthogonalEdgeStyle;rounded=0;orthogonalLoop=1;jettySize=auto;html=1;entryX=0.5;entryY=0;entryDx=0;entryDy=0;" parent="jZ41Z43YZQu7ptAk3vIj-8" source="jZ41Z43YZQu7ptAk3vIj-25" target="jZ41Z43YZQu7ptAk3vIj-28" edge="1">
          <mxGeometry relative="1" as="geometry" />
        </mxCell>
        <mxCell id="jZ41Z43YZQu7ptAk3vIj-25" value="Se realiza liberación de préstamo y conteo del inicio y vencimiento del prestamo" style="shape=process;whiteSpace=wrap;html=1;backgroundOutline=1;" parent="jZ41Z43YZQu7ptAk3vIj-8" vertex="1">
          <mxGeometry x="210" y="839" width="150" height="91" as="geometry" />
        </mxCell>
        <mxCell id="jZ41Z43YZQu7ptAk3vIj-31" style="edgeStyle=orthogonalEdgeStyle;rounded=0;orthogonalLoop=1;jettySize=auto;html=1;" parent="jZ41Z43YZQu7ptAk3vIj-8" source="jZ41Z43YZQu7ptAk3vIj-28" target="jZ41Z43YZQu7ptAk3vIj-30" edge="1">
          <mxGeometry relative="1" as="geometry" />
        </mxCell>
        <mxCell id="jZ41Z43YZQu7ptAk3vIj-28" value="¿Realizó la liquidación del préstamo?" style="rhombus;whiteSpace=wrap;html=1;" parent="jZ41Z43YZQu7ptAk3vIj-8" vertex="1">
          <mxGeometry x="487" y="850" width="113" height="100" as="geometry" />
        </mxCell>
        <mxCell id="jZ41Z43YZQu7ptAk3vIj-33" style="edgeStyle=orthogonalEdgeStyle;rounded=0;orthogonalLoop=1;jettySize=auto;html=1;entryX=0.5;entryY=0;entryDx=0;entryDy=0;" parent="jZ41Z43YZQu7ptAk3vIj-8" source="jZ41Z43YZQu7ptAk3vIj-30" target="jZ41Z43YZQu7ptAk3vIj-32" edge="1">
          <mxGeometry relative="1" as="geometry" />
        </mxCell>
        <mxCell id="jZ41Z43YZQu7ptAk3vIj-30" value="Se pide al usuario retirar su objeto custodiado en 30 días o solicitar otro préstamo" style="shape=process;whiteSpace=wrap;html=1;backgroundOutline=1;" parent="jZ41Z43YZQu7ptAk3vIj-8" vertex="1">
          <mxGeometry x="468.5" y="1019" width="150" height="91" as="geometry" />
        </mxCell>
        <mxCell id="jZ41Z43YZQu7ptAk3vIj-35" style="edgeStyle=orthogonalEdgeStyle;rounded=0;orthogonalLoop=1;jettySize=auto;html=1;" parent="jZ41Z43YZQu7ptAk3vIj-8" source="jZ41Z43YZQu7ptAk3vIj-32" target="jZ41Z43YZQu7ptAk3vIj-34" edge="1">
          <mxGeometry relative="1" as="geometry" />
        </mxCell>
        <mxCell id="jZ41Z43YZQu7ptAk3vIj-36" style="edgeStyle=orthogonalEdgeStyle;rounded=0;orthogonalLoop=1;jettySize=auto;html=1;" parent="jZ41Z43YZQu7ptAk3vIj-8" source="jZ41Z43YZQu7ptAk3vIj-32" target="jZ41Z43YZQu7ptAk3vIj-4" edge="1">
          <mxGeometry relative="1" as="geometry">
            <Array as="points">
              <mxPoint x="850" y="1234" />
              <mxPoint x="850" y="460" />
              <mxPoint x="264" y="460" />
            </Array>
          </mxGeometry>
        </mxCell>
        <mxCell id="jZ41Z43YZQu7ptAk3vIj-32" value="¿Pidió retirar su objeto custodiado?" style="rhombus;whiteSpace=wrap;html=1;" parent="jZ41Z43YZQu7ptAk3vIj-8" vertex="1">
          <mxGeometry x="467" y="1169" width="153" height="131" as="geometry" />
        </mxCell>
        <mxCell id="jZ41Z43YZQu7ptAk3vIj-39" style="edgeStyle=orthogonalEdgeStyle;rounded=0;orthogonalLoop=1;jettySize=auto;html=1;entryX=0.5;entryY=0;entryDx=0;entryDy=0;" parent="jZ41Z43YZQu7ptAk3vIj-8" source="jZ41Z43YZQu7ptAk3vIj-34" target="jZ41Z43YZQu7ptAk3vIj-38" edge="1">
          <mxGeometry relative="1" as="geometry" />
        </mxCell>
        <mxCell id="jZ41Z43YZQu7ptAk3vIj-34" value="Se espera 30 días para su retiro" style="shape=process;whiteSpace=wrap;html=1;backgroundOutline=1;" parent="jZ41Z43YZQu7ptAk3vIj-8" vertex="1">
          <mxGeometry x="200" y="1189" width="150" height="91" as="geometry" />
        </mxCell>
        <mxCell id="jZ41Z43YZQu7ptAk3vIj-41" style="edgeStyle=orthogonalEdgeStyle;rounded=0;orthogonalLoop=1;jettySize=auto;html=1;" parent="jZ41Z43YZQu7ptAk3vIj-8" source="jZ41Z43YZQu7ptAk3vIj-38" target="jZ41Z43YZQu7ptAk3vIj-40" edge="1">
          <mxGeometry relative="1" as="geometry" />
        </mxCell>
        <mxCell id="jZ41Z43YZQu7ptAk3vIj-43" style="edgeStyle=orthogonalEdgeStyle;rounded=0;orthogonalLoop=1;jettySize=auto;html=1;" parent="jZ41Z43YZQu7ptAk3vIj-8" source="jZ41Z43YZQu7ptAk3vIj-38" target="jZ41Z43YZQu7ptAk3vIj-42" edge="1">
          <mxGeometry relative="1" as="geometry" />
        </mxCell>
        <mxCell id="jZ41Z43YZQu7ptAk3vIj-38" value="¿Se ha retirado el objeto en custodia?" style="rhombus;whiteSpace=wrap;html=1;" parent="jZ41Z43YZQu7ptAk3vIj-8" vertex="1">
          <mxGeometry x="270" y="1369" width="153" height="131" as="geometry" />
        </mxCell>
        <mxCell id="jZ41Z43YZQu7ptAk3vIj-40" value="Liquidación inmediata del objeto en custodia" style="shape=process;whiteSpace=wrap;html=1;backgroundOutline=1;" parent="jZ41Z43YZQu7ptAk3vIj-8" vertex="1">
          <mxGeometry x="480" y="1419" width="150" height="91" as="geometry" />
        </mxCell>
        <mxCell id="jZ41Z43YZQu7ptAk3vIj-42" value="Fin del flujo" style="shape=process;whiteSpace=wrap;html=1;backgroundOutline=1;" parent="jZ41Z43YZQu7ptAk3vIj-8" vertex="1">
          <mxGeometry x="50" y="1389" width="150" height="91" as="geometry" />
        </mxCell>
        <mxCell id="jZ41Z43YZQu7ptAk3vIj-2" value="Actor" style="shape=umlActor;verticalLabelPosition=bottom;verticalAlign=top;html=1;outlineConnect=0;" parent="WIyWlLk6GJQsqaUBKTNV-1" vertex="1">
          <mxGeometry y="641.25" width="30" height="60" as="geometry" />
        </mxCell>
        <mxCell id="jZ41Z43YZQu7ptAk3vIj-3" style="edgeStyle=orthogonalEdgeStyle;rounded=0;orthogonalLoop=1;jettySize=auto;html=1;entryX=0;entryY=0.5;entryDx=0;entryDy=0;" parent="WIyWlLk6GJQsqaUBKTNV-1" source="jZ41Z43YZQu7ptAk3vIj-2" target="jZ41Z43YZQu7ptAk3vIj-1" edge="1">
          <mxGeometry relative="1" as="geometry" />
        </mxCell>
      </root>
    </mxGraphModel>
  </diagram>
  <diagram name="Diagrama de arquitectura" id="ezfAjoqotJ95FKqzzuqD">
    <mxGraphModel dx="1520" dy="802" grid="1" gridSize="10" guides="1" tooltips="1" connect="1" arrows="1" fold="1" page="1" pageScale="1" pageWidth="827" pageHeight="1169" math="0" shadow="0">
      <root>
        <mxCell id="gBqEY2jMM7VxyXyXvLgT-0" />
        <mxCell id="gBqEY2jMM7VxyXyXvLgT-1" parent="gBqEY2jMM7VxyXyXvLgT-0" />
        <mxCell id="YKeDdGjH8pRjckw9KP68-6" style="edgeStyle=orthogonalEdgeStyle;rounded=0;orthogonalLoop=1;jettySize=auto;html=1;" parent="gBqEY2jMM7VxyXyXvLgT-1" source="gBqEY2jMM7VxyXyXvLgT-36" target="Zx-0reXdJ6Oqty3y1INn-1" edge="1">
          <mxGeometry relative="1" as="geometry" />
        </mxCell>
        <mxCell id="gBqEY2jMM7VxyXyXvLgT-36" value="Actor" style="shape=umlActor;verticalLabelPosition=bottom;verticalAlign=top;html=1;outlineConnect=0;" parent="gBqEY2jMM7VxyXyXvLgT-1" vertex="1">
          <mxGeometry x="20" y="345.25" width="30" height="60" as="geometry" />
        </mxCell>
        <mxCell id="Zx-0reXdJ6Oqty3y1INn-0" value="AWS Cloud" style="points=[[0,0],[0.25,0],[0.5,0],[0.75,0],[1,0],[1,0.25],[1,0.5],[1,0.75],[1,1],[0.75,1],[0.5,1],[0.25,1],[0,1],[0,0.75],[0,0.5],[0,0.25]];outlineConnect=0;gradientColor=none;html=1;whiteSpace=wrap;fontSize=12;fontStyle=0;container=1;pointerEvents=0;collapsible=0;recursiveResize=0;shape=mxgraph.aws4.group;grIcon=mxgraph.aws4.group_aws_cloud_alt;strokeColor=#232F3E;fillColor=none;verticalAlign=top;align=left;spacingLeft=30;fontColor=#232F3E;dashed=0;" parent="gBqEY2jMM7VxyXyXvLgT-1" vertex="1">
          <mxGeometry x="240" y="130" width="1490" height="610" as="geometry" />
        </mxCell>
        <mxCell id="YKeDdGjH8pRjckw9KP68-21" style="edgeStyle=orthogonalEdgeStyle;rounded=0;orthogonalLoop=1;jettySize=auto;html=1;" parent="Zx-0reXdJ6Oqty3y1INn-0" source="Zx-0reXdJ6Oqty3y1INn-4" target="YKeDdGjH8pRjckw9KP68-19" edge="1">
          <mxGeometry relative="1" as="geometry" />
        </mxCell>
        <mxCell id="YKeDdGjH8pRjckw9KP68-25" style="edgeStyle=orthogonalEdgeStyle;rounded=0;orthogonalLoop=1;jettySize=auto;html=1;" parent="Zx-0reXdJ6Oqty3y1INn-0" source="Zx-0reXdJ6Oqty3y1INn-4" target="YKeDdGjH8pRjckw9KP68-24" edge="1">
          <mxGeometry relative="1" as="geometry">
            <Array as="points">
              <mxPoint x="270" y="250" />
              <mxPoint x="270" y="250" />
            </Array>
          </mxGeometry>
        </mxCell>
        <mxCell id="w68JBFDQHlhGfXdvp4zg-11" style="edgeStyle=orthogonalEdgeStyle;rounded=0;orthogonalLoop=1;jettySize=auto;html=1;" parent="Zx-0reXdJ6Oqty3y1INn-0" source="Zx-0reXdJ6Oqty3y1INn-4" target="w68JBFDQHlhGfXdvp4zg-10" edge="1">
          <mxGeometry relative="1" as="geometry">
            <Array as="points">
              <mxPoint x="200" y="445" />
            </Array>
          </mxGeometry>
        </mxCell>
        <mxCell id="Zx-0reXdJ6Oqty3y1INn-4" value="Amazon API Gateway" style="sketch=0;outlineConnect=0;fontColor=#232F3E;gradientColor=none;strokeColor=#ffffff;fillColor=#232F3E;dashed=0;verticalLabelPosition=middle;verticalAlign=bottom;align=center;html=1;whiteSpace=wrap;fontSize=10;fontStyle=1;spacing=3;shape=mxgraph.aws4.productIcon;prIcon=mxgraph.aws4.api_gateway;" parent="Zx-0reXdJ6Oqty3y1INn-0" vertex="1">
          <mxGeometry x="174" y="218" width="50" height="90" as="geometry" />
        </mxCell>
        <mxCell id="Zx-0reXdJ6Oqty3y1INn-10" style="edgeStyle=orthogonalEdgeStyle;rounded=0;orthogonalLoop=1;jettySize=auto;html=1;entryX=0;entryY=0.5;entryDx=0;entryDy=0;entryPerimeter=0;" parent="Zx-0reXdJ6Oqty3y1INn-0" source="Zx-0reXdJ6Oqty3y1INn-6" target="Zx-0reXdJ6Oqty3y1INn-9" edge="1">
          <mxGeometry relative="1" as="geometry" />
        </mxCell>
        <mxCell id="Zx-0reXdJ6Oqty3y1INn-6" value="" style="outlineConnect=0;dashed=0;verticalLabelPosition=bottom;verticalAlign=top;align=center;html=1;shape=mxgraph.aws3.lambda_function;fillColor=#F58534;gradientColor=none;" parent="Zx-0reXdJ6Oqty3y1INn-0" vertex="1">
          <mxGeometry x="304.5" y="19" width="39" height="46" as="geometry" />
        </mxCell>
        <mxCell id="Zx-0reXdJ6Oqty3y1INn-7" value="lambda-client-register-petition-dev" style="text;html=1;align=center;verticalAlign=middle;resizable=0;points=[];autosize=1;strokeColor=none;fillColor=none;" parent="Zx-0reXdJ6Oqty3y1INn-0" vertex="1">
          <mxGeometry x="224" y="65" width="200" height="30" as="geometry" />
        </mxCell>
        <mxCell id="YKeDdGjH8pRjckw9KP68-14" style="edgeStyle=orthogonalEdgeStyle;rounded=0;orthogonalLoop=1;jettySize=auto;html=1;" parent="Zx-0reXdJ6Oqty3y1INn-0" source="Zx-0reXdJ6Oqty3y1INn-9" target="YKeDdGjH8pRjckw9KP68-12" edge="1">
          <mxGeometry relative="1" as="geometry" />
        </mxCell>
        <mxCell id="Zx-0reXdJ6Oqty3y1INn-9" value="" style="outlineConnect=0;dashed=0;verticalLabelPosition=bottom;verticalAlign=top;align=center;html=1;shape=mxgraph.aws3.dynamo_db;fillColor=#2E73B8;gradientColor=none;" parent="Zx-0reXdJ6Oqty3y1INn-0" vertex="1">
          <mxGeometry x="698" y="20" width="42" height="45" as="geometry" />
        </mxCell>
        <mxCell id="Zx-0reXdJ6Oqty3y1INn-11" value="cashi-finance-session-clients-{env}" style="text;html=1;align=center;verticalAlign=middle;resizable=0;points=[];autosize=1;strokeColor=none;fillColor=none;" parent="Zx-0reXdJ6Oqty3y1INn-0" vertex="1">
          <mxGeometry x="614" y="65" width="210" height="30" as="geometry" />
        </mxCell>
        <mxCell id="YKeDdGjH8pRjckw9KP68-0" value="Registro de peticiones de préstamos" style="text;html=1;align=center;verticalAlign=middle;resizable=0;points=[];autosize=1;strokeColor=none;fillColor=none;" parent="Zx-0reXdJ6Oqty3y1INn-0" vertex="1">
          <mxGeometry x="414" y="10" width="220" height="30" as="geometry" />
        </mxCell>
        <mxCell id="YKeDdGjH8pRjckw9KP68-8" value="" style="sketch=0;points=[[0,0,0],[0.25,0,0],[0.5,0,0],[0.75,0,0],[1,0,0],[0,1,0],[0.25,1,0],[0.5,1,0],[0.75,1,0],[1,1,0],[0,0.25,0],[0,0.5,0],[0,0.75,0],[1,0.25,0],[1,0.5,0],[1,0.75,0]];outlineConnect=0;fontColor=#232F3E;fillColor=#DD344C;strokeColor=#ffffff;dashed=0;verticalLabelPosition=bottom;verticalAlign=top;align=center;html=1;fontSize=12;fontStyle=0;aspect=fixed;shape=mxgraph.aws4.resourceIcon;resIcon=mxgraph.aws4.simple_email_service;" parent="Zx-0reXdJ6Oqty3y1INn-0" vertex="1">
          <mxGeometry x="1414" y="226" width="58" height="58" as="geometry" />
        </mxCell>
        <mxCell id="9a7iacweDAmTNQ0SgqR6-0" style="edgeStyle=orthogonalEdgeStyle;rounded=0;orthogonalLoop=1;jettySize=auto;html=1;" edge="1" parent="Zx-0reXdJ6Oqty3y1INn-0" source="YKeDdGjH8pRjckw9KP68-10" target="w68JBFDQHlhGfXdvp4zg-13">
          <mxGeometry relative="1" as="geometry" />
        </mxCell>
        <mxCell id="YKeDdGjH8pRjckw9KP68-10" value="Enviar correo del estado de cada cliente, y se le pide la subida de documentos en la plataforma" style="text;html=1;align=center;verticalAlign=middle;resizable=0;points=[];autosize=1;strokeColor=none;fillColor=none;" parent="Zx-0reXdJ6Oqty3y1INn-0" vertex="1">
          <mxGeometry x="935" y="140" width="530" height="30" as="geometry" />
        </mxCell>
        <mxCell id="YKeDdGjH8pRjckw9KP68-11" value="SES" style="text;html=1;align=center;verticalAlign=middle;resizable=0;points=[];autosize=1;strokeColor=none;fillColor=none;" parent="Zx-0reXdJ6Oqty3y1INn-0" vertex="1">
          <mxGeometry x="1418" y="290" width="50" height="30" as="geometry" />
        </mxCell>
        <mxCell id="YKeDdGjH8pRjckw9KP68-17" style="edgeStyle=orthogonalEdgeStyle;rounded=0;orthogonalLoop=1;jettySize=auto;html=1;" parent="Zx-0reXdJ6Oqty3y1INn-0" source="YKeDdGjH8pRjckw9KP68-12" target="YKeDdGjH8pRjckw9KP68-10" edge="1">
          <mxGeometry relative="1" as="geometry">
            <Array as="points">
              <mxPoint x="1199" y="42" />
            </Array>
          </mxGeometry>
        </mxCell>
        <mxCell id="YKeDdGjH8pRjckw9KP68-12" value="" style="outlineConnect=0;dashed=0;verticalLabelPosition=bottom;verticalAlign=top;align=center;html=1;shape=mxgraph.aws3.lambda_function;fillColor=#F58534;gradientColor=none;" parent="Zx-0reXdJ6Oqty3y1INn-0" vertex="1">
          <mxGeometry x="1000.5" y="19" width="39" height="46" as="geometry" />
        </mxCell>
        <mxCell id="YKeDdGjH8pRjckw9KP68-13" value="loans_motor_decision" style="text;html=1;align=center;verticalAlign=middle;resizable=0;points=[];autosize=1;strokeColor=none;fillColor=none;" parent="Zx-0reXdJ6Oqty3y1INn-0" vertex="1">
          <mxGeometry x="950" y="65" width="140" height="30" as="geometry" />
        </mxCell>
        <mxCell id="YKeDdGjH8pRjckw9KP68-16" value="Por TTL, revisamos que clientes son aptos" style="text;html=1;align=center;verticalAlign=middle;resizable=0;points=[];autosize=1;strokeColor=none;fillColor=none;" parent="Zx-0reXdJ6Oqty3y1INn-0" vertex="1">
          <mxGeometry x="750" y="10" width="250" height="30" as="geometry" />
        </mxCell>
        <mxCell id="YKeDdGjH8pRjckw9KP68-19" value="Primera vez" style="text;html=1;align=center;verticalAlign=middle;resizable=0;points=[];autosize=1;strokeColor=none;fillColor=none;" parent="Zx-0reXdJ6Oqty3y1INn-0" vertex="1">
          <mxGeometry x="154" y="140" width="90" height="30" as="geometry" />
        </mxCell>
        <mxCell id="YKeDdGjH8pRjckw9KP68-22" style="edgeStyle=orthogonalEdgeStyle;rounded=0;orthogonalLoop=1;jettySize=auto;html=1;entryX=0;entryY=0.5;entryDx=0;entryDy=0;entryPerimeter=0;" parent="Zx-0reXdJ6Oqty3y1INn-0" source="YKeDdGjH8pRjckw9KP68-19" target="Zx-0reXdJ6Oqty3y1INn-6" edge="1">
          <mxGeometry relative="1" as="geometry">
            <Array as="points">
              <mxPoint x="199" y="42" />
            </Array>
          </mxGeometry>
        </mxCell>
        <mxCell id="9a7iacweDAmTNQ0SgqR6-1" style="edgeStyle=orthogonalEdgeStyle;rounded=0;orthogonalLoop=1;jettySize=auto;html=1;" edge="1" parent="Zx-0reXdJ6Oqty3y1INn-0" source="YKeDdGjH8pRjckw9KP68-24" target="w68JBFDQHlhGfXdvp4zg-4">
          <mxGeometry relative="1" as="geometry" />
        </mxCell>
        <mxCell id="YKeDdGjH8pRjckw9KP68-24" value="Cliente apto, sube documentos de sustentación" style="text;html=1;align=center;verticalAlign=middle;resizable=0;points=[];autosize=1;strokeColor=none;fillColor=none;" parent="Zx-0reXdJ6Oqty3y1INn-0" vertex="1">
          <mxGeometry x="311" y="240" width="280" height="30" as="geometry" />
        </mxCell>
        <mxCell id="w68JBFDQHlhGfXdvp4zg-0" value="" style="sketch=0;points=[[0,0,0],[0.25,0,0],[0.5,0,0],[0.75,0,0],[1,0,0],[0,1,0],[0.25,1,0],[0.5,1,0],[0.75,1,0],[1,1,0],[0,0.25,0],[0,0.5,0],[0,0.75,0],[1,0.25,0],[1,0.5,0],[1,0.75,0]];outlineConnect=0;fontColor=#232F3E;fillColor=#7AA116;strokeColor=#ffffff;dashed=0;verticalLabelPosition=bottom;verticalAlign=top;align=center;html=1;fontSize=12;fontStyle=0;aspect=fixed;shape=mxgraph.aws4.resourceIcon;resIcon=mxgraph.aws4.s3;" parent="Zx-0reXdJ6Oqty3y1INn-0" vertex="1">
          <mxGeometry x="412" y="308" width="78" height="78" as="geometry" />
        </mxCell>
        <mxCell id="w68JBFDQHlhGfXdvp4zg-1" value="documentos-de-sustentacion-identidad" style="text;html=1;align=center;verticalAlign=middle;resizable=0;points=[];autosize=1;strokeColor=none;fillColor=none;" parent="Zx-0reXdJ6Oqty3y1INn-0" vertex="1">
          <mxGeometry x="336" y="380" width="230" height="30" as="geometry" />
        </mxCell>
        <mxCell id="w68JBFDQHlhGfXdvp4zg-2" style="edgeStyle=orthogonalEdgeStyle;rounded=0;orthogonalLoop=1;jettySize=auto;html=1;entryX=0.5;entryY=0;entryDx=0;entryDy=0;entryPerimeter=0;" parent="Zx-0reXdJ6Oqty3y1INn-0" source="YKeDdGjH8pRjckw9KP68-24" target="w68JBFDQHlhGfXdvp4zg-0" edge="1">
          <mxGeometry relative="1" as="geometry" />
        </mxCell>
        <mxCell id="9a7iacweDAmTNQ0SgqR6-2" style="edgeStyle=orthogonalEdgeStyle;rounded=0;orthogonalLoop=1;jettySize=auto;html=1;" edge="1" parent="Zx-0reXdJ6Oqty3y1INn-0" source="w68JBFDQHlhGfXdvp4zg-4" target="w68JBFDQHlhGfXdvp4zg-13">
          <mxGeometry relative="1" as="geometry" />
        </mxCell>
        <mxCell id="w68JBFDQHlhGfXdvp4zg-4" value="Correo actualización de estatus: Sustentación de préstamo" style="text;html=1;align=center;verticalAlign=middle;resizable=0;points=[];autosize=1;strokeColor=none;fillColor=none;" parent="Zx-0reXdJ6Oqty3y1INn-0" vertex="1">
          <mxGeometry x="680" y="240" width="340" height="30" as="geometry" />
        </mxCell>
        <mxCell id="9a7iacweDAmTNQ0SgqR6-4" style="edgeStyle=orthogonalEdgeStyle;rounded=0;orthogonalLoop=1;jettySize=auto;html=1;" edge="1" parent="Zx-0reXdJ6Oqty3y1INn-0" source="w68JBFDQHlhGfXdvp4zg-10" target="w68JBFDQHlhGfXdvp4zg-17">
          <mxGeometry relative="1" as="geometry" />
        </mxCell>
        <mxCell id="w68JBFDQHlhGfXdvp4zg-10" value="Cliente apto, sube documentos de prestamo" style="text;html=1;align=center;verticalAlign=middle;resizable=0;points=[];autosize=1;strokeColor=none;fillColor=none;" parent="Zx-0reXdJ6Oqty3y1INn-0" vertex="1">
          <mxGeometry x="321" y="430" width="260" height="30" as="geometry" />
        </mxCell>
        <mxCell id="w68JBFDQHlhGfXdvp4zg-7" value="" style="sketch=0;points=[[0,0,0],[0.25,0,0],[0.5,0,0],[0.75,0,0],[1,0,0],[0,1,0],[0.25,1,0],[0.5,1,0],[0.75,1,0],[1,1,0],[0,0.25,0],[0,0.5,0],[0,0.75,0],[1,0.25,0],[1,0.5,0],[1,0.75,0]];outlineConnect=0;fontColor=#232F3E;fillColor=#7AA116;strokeColor=#ffffff;dashed=0;verticalLabelPosition=bottom;verticalAlign=top;align=center;html=1;fontSize=12;fontStyle=0;aspect=fixed;shape=mxgraph.aws4.resourceIcon;resIcon=mxgraph.aws4.s3;" parent="Zx-0reXdJ6Oqty3y1INn-0" vertex="1">
          <mxGeometry x="412" y="490" width="78" height="78" as="geometry" />
        </mxCell>
        <mxCell id="w68JBFDQHlhGfXdvp4zg-8" value="documentos-de-sustentacion-prestamo" style="text;html=1;align=center;verticalAlign=middle;resizable=0;points=[];autosize=1;strokeColor=none;fillColor=none;" parent="Zx-0reXdJ6Oqty3y1INn-0" vertex="1">
          <mxGeometry x="336" y="568" width="230" height="30" as="geometry" />
        </mxCell>
        <mxCell id="w68JBFDQHlhGfXdvp4zg-12" style="edgeStyle=orthogonalEdgeStyle;rounded=0;orthogonalLoop=1;jettySize=auto;html=1;" parent="Zx-0reXdJ6Oqty3y1INn-0" source="w68JBFDQHlhGfXdvp4zg-10" target="w68JBFDQHlhGfXdvp4zg-7" edge="1">
          <mxGeometry relative="1" as="geometry" />
        </mxCell>
        <mxCell id="9a7iacweDAmTNQ0SgqR6-6" style="edgeStyle=orthogonalEdgeStyle;rounded=0;orthogonalLoop=1;jettySize=auto;html=1;" edge="1" parent="Zx-0reXdJ6Oqty3y1INn-0" source="w68JBFDQHlhGfXdvp4zg-13" target="YKeDdGjH8pRjckw9KP68-8">
          <mxGeometry relative="1" as="geometry" />
        </mxCell>
        <mxCell id="w68JBFDQHlhGfXdvp4zg-13" value="" style="outlineConnect=0;dashed=0;verticalLabelPosition=bottom;verticalAlign=top;align=center;html=1;shape=mxgraph.aws3.lambda_function;fillColor=#F58534;gradientColor=none;" parent="Zx-0reXdJ6Oqty3y1INn-0" vertex="1">
          <mxGeometry x="1180" y="232" width="39" height="46" as="geometry" />
        </mxCell>
        <mxCell id="w68JBFDQHlhGfXdvp4zg-14" value="correos-template-proceso" style="text;html=1;align=center;verticalAlign=middle;resizable=0;points=[];autosize=1;strokeColor=none;fillColor=none;" parent="Zx-0reXdJ6Oqty3y1INn-0" vertex="1">
          <mxGeometry x="1120" y="278" width="160" height="30" as="geometry" />
        </mxCell>
        <mxCell id="9a7iacweDAmTNQ0SgqR6-5" style="edgeStyle=orthogonalEdgeStyle;rounded=0;orthogonalLoop=1;jettySize=auto;html=1;" edge="1" parent="Zx-0reXdJ6Oqty3y1INn-0" source="w68JBFDQHlhGfXdvp4zg-17" target="w68JBFDQHlhGfXdvp4zg-14">
          <mxGeometry relative="1" as="geometry" />
        </mxCell>
        <mxCell id="w68JBFDQHlhGfXdvp4zg-17" value="Correo de Actualización: Pase a sucursal" style="text;html=1;align=center;verticalAlign=middle;resizable=0;points=[];autosize=1;strokeColor=none;fillColor=none;" parent="Zx-0reXdJ6Oqty3y1INn-0" vertex="1">
          <mxGeometry x="698" y="430" width="240" height="30" as="geometry" />
        </mxCell>
        <mxCell id="YKeDdGjH8pRjckw9KP68-20" style="edgeStyle=orthogonalEdgeStyle;rounded=0;orthogonalLoop=1;jettySize=auto;html=1;" parent="gBqEY2jMM7VxyXyXvLgT-1" source="Zx-0reXdJ6Oqty3y1INn-1" target="Zx-0reXdJ6Oqty3y1INn-4" edge="1">
          <mxGeometry relative="1" as="geometry">
            <Array as="points">
              <mxPoint x="370" y="375" />
              <mxPoint x="370" y="375" />
            </Array>
          </mxGeometry>
        </mxCell>
        <mxCell id="Zx-0reXdJ6Oqty3y1INn-1" value="Website" style="sketch=0;outlineConnect=0;gradientColor=none;fontColor=#545B64;strokeColor=none;fillColor=#879196;dashed=0;verticalLabelPosition=bottom;verticalAlign=top;align=center;html=1;fontSize=12;fontStyle=0;aspect=fixed;shape=mxgraph.aws4.illustration_devices;pointerEvents=1" parent="gBqEY2jMM7VxyXyXvLgT-1" vertex="1">
          <mxGeometry x="110" y="338.75" width="100" height="73" as="geometry" />
        </mxCell>
      </root>
    </mxGraphModel>
  </diagram>
</mxfile>
